<svg width="92" height="19" viewBox="0 0 92 19" fill="none" xmlns="http://www.w3.org/2000/svg">
<path d="M16.104 0.959999L4.2 18H0.648L12.528 0.959999H16.104ZM18.5578 5.52L19.6858 3.816L17.9818 3.288L18.4138 1.896L20.1658 2.64L20.0458 0.792H21.7498L21.6298 2.64L23.3578 1.896L23.7898 3.288L22.1098 3.816L23.2378 5.52L21.9898 6.336L20.9098 4.536L19.8058 6.336L18.5578 5.52ZM32.5729 18V0.983999H35.8849V9.072L43.0369 0.959999H46.6849L40.1569 8.52L47.0929 18H43.3489L38.0449 10.656L35.8849 12.912V18H32.5729ZM46.7507 11.712C46.7507 10.496 46.9907 9.4 47.4707 8.424C47.9507 7.432 48.6147 6.648 49.4627 6.072C50.3107 5.496 51.2787 5.208 52.3667 5.208C53.2947 5.208 54.1267 5.44 54.8627 5.904C55.6147 6.352 56.1987 6.928 56.6147 7.632V0.48H59.8307V14.4C59.8307 14.736 59.8867 14.976 59.9987 15.12C60.1107 15.264 60.3027 15.352 60.5747 15.384V18C60.0147 18.112 59.5587 18.168 59.2067 18.168C58.6307 18.168 58.1507 18.024 57.7667 17.736C57.3987 17.448 57.1907 17.072 57.1427 16.608L57.0947 15.816C56.6307 16.6 55.9987 17.2 55.1987 17.616C54.4147 18.032 53.5907 18.24 52.7267 18.24C51.8627 18.24 51.0627 18.072 50.3267 17.736C49.6067 17.4 48.9747 16.936 48.4307 16.344C47.9027 15.752 47.4867 15.064 47.1827 14.28C46.8947 13.48 46.7507 12.624 46.7507 11.712ZM56.6147 13.392V10.392C56.4547 9.928 56.1987 9.512 55.8467 9.144C55.4947 8.776 55.1027 8.488 54.6707 8.28C54.2387 8.056 53.8067 7.944 53.3747 7.944C52.8787 7.944 52.4307 8.048 52.0307 8.256C51.6307 8.464 51.2787 8.744 50.9747 9.096C50.6867 9.448 50.4627 9.856 50.3027 10.32C50.1587 10.784 50.0867 11.272 50.0867 11.784C50.0867 12.296 50.1667 12.784 50.3267 13.248C50.5027 13.696 50.7507 14.088 51.0707 14.424C51.3907 14.76 51.7587 15.024 52.1747 15.216C52.6067 15.408 53.0707 15.504 53.5667 15.504C53.8707 15.504 54.1747 15.456 54.4787 15.36C54.7987 15.248 55.0947 15.104 55.3667 14.928C55.6547 14.736 55.9027 14.512 56.1107 14.256C56.3347 13.984 56.5027 13.696 56.6147 13.392ZM69.0891 5.52L70.2171 3.816L68.5131 3.288L68.9451 1.896L70.6971 2.64L70.5771 0.792H72.2811L72.1611 2.64L73.8891 1.896L74.3211 3.288L72.6411 3.816L73.7691 5.52L72.5211 6.336L71.4411 4.536L70.3371 6.336L69.0891 5.52ZM91.6665 0.959999L79.7625 18H76.2105L88.0905 0.959999H91.6665Z" fill="white"/>
</svg>
