<svg width="150" height="40" viewBox="0 0 150 40" fill="none" xmlns="http://www.w3.org/2000/svg">
<rect width="40" height="40" fill="#D9D9D9"/>
<path d="M73.104 10.96L61.2 28H57.648L69.528 10.96H73.104ZM75.5578 15.52L76.6858 13.816L74.9818 13.288L75.4138 11.896L77.1658 12.64L77.0458 10.792H78.7498L78.6298 12.64L80.3578 11.896L80.7898 13.288L79.1098 13.816L80.2378 15.52L78.9898 16.336L77.9098 14.536L76.8058 16.336L75.5578 15.52ZM89.5729 28V10.984H92.8849V19.072L100.037 10.96H103.685L97.1569 18.52L104.093 28H100.349L95.0449 20.656L92.8849 22.912V28H89.5729ZM103.751 21.712C103.751 20.496 103.991 19.4 104.471 18.424C104.951 17.432 105.615 16.648 106.463 16.072C107.311 15.496 108.279 15.208 109.367 15.208C110.295 15.208 111.127 15.44 111.863 15.904C112.615 16.352 113.199 16.928 113.615 17.632V10.48H116.831V24.4C116.831 24.736 116.887 24.976 116.999 25.12C117.111 25.264 117.303 25.352 117.575 25.384V28C117.015 28.112 116.559 28.168 116.207 28.168C115.631 28.168 115.151 28.024 114.767 27.736C114.399 27.448 114.191 27.072 114.143 26.608L114.095 25.816C113.631 26.6 112.999 27.2 112.199 27.616C111.415 28.032 110.591 28.24 109.727 28.24C108.863 28.24 108.063 28.072 107.327 27.736C106.607 27.4 105.975 26.936 105.431 26.344C104.903 25.752 104.487 25.064 104.183 24.28C103.895 23.48 103.751 22.624 103.751 21.712ZM113.615 23.392V20.392C113.455 19.928 113.199 19.512 112.847 19.144C112.495 18.776 112.103 18.488 111.671 18.28C111.239 18.056 110.807 17.944 110.375 17.944C109.879 17.944 109.431 18.048 109.031 18.256C108.631 18.464 108.279 18.744 107.975 19.096C107.687 19.448 107.463 19.856 107.303 20.32C107.159 20.784 107.087 21.272 107.087 21.784C107.087 22.296 107.167 22.784 107.327 23.248C107.503 23.696 107.751 24.088 108.071 24.424C108.391 24.76 108.759 25.024 109.175 25.216C109.607 25.408 110.071 25.504 110.567 25.504C110.871 25.504 111.175 25.456 111.479 25.36C111.799 25.248 112.095 25.104 112.367 24.928C112.655 24.736 112.903 24.512 113.111 24.256C113.335 23.984 113.503 23.696 113.615 23.392ZM126.089 15.52L127.217 13.816L125.513 13.288L125.945 11.896L127.697 12.64L127.577 10.792H129.281L129.161 12.64L130.889 11.896L131.321 13.288L129.641 13.816L130.769 15.52L129.521 16.336L128.441 14.536L127.337 16.336L126.089 15.52ZM148.667 10.96L136.763 28H133.211L145.091 10.96H148.667Z" fill="white"/>
</svg>
